<svg width="18" height="18" viewBox="0 0 18 18" fill="none" xmlns="http://www.w3.org/2000/svg">
<path d="M8.88926 11.6191C8.90241 11.6359 8.91922 11.6495 8.93841 11.6589C8.95759 11.6682 8.97866 11.6731 9 11.6731C9.02134 11.6731 9.04241 11.6682 9.06159 11.6589C9.08078 11.6495 9.09759 11.6359 9.11074 11.6191L11.0795 9.12832C11.1516 9.03691 11.0865 8.90156 10.9688 8.90156H9.66621V2.95312C9.66621 2.87578 9.60293 2.8125 9.52559 2.8125H8.4709C8.39355 2.8125 8.33027 2.87578 8.33027 2.95312V8.8998H7.03125C6.91348 8.8998 6.84844 9.03516 6.92051 9.12656L8.88926 11.6191ZM15.4336 11.0039H14.3789C14.3016 11.0039 14.2383 11.0672 14.2383 11.1445V13.8516H3.76172V11.1445C3.76172 11.0672 3.69844 11.0039 3.62109 11.0039H2.56641C2.48906 11.0039 2.42578 11.0672 2.42578 11.1445V14.625C2.42578 14.9361 2.67715 15.1875 2.98828 15.1875H15.0117C15.3229 15.1875 15.5742 14.9361 15.5742 14.625V11.1445C15.5742 11.0672 15.5109 11.0039 15.4336 11.0039Z" fill="white"/>
</svg>
