<svg width="14" height="14" viewBox="0 0 14 14" fill="none" xmlns="http://www.w3.org/2000/svg">
<path d="M12.8042 5.08727L12.7896 4.98927L12.7744 4.99277C12.6708 4.50804 12.432 4.06257 12.0857 3.70789C11.7394 3.35322 11.2998 3.10383 10.8177 2.9886C10.3356 2.87337 9.83068 2.897 9.36144 3.05675C8.8922 3.2165 8.47779 3.50585 8.16614 3.89132C7.8545 4.27678 7.65836 4.74261 7.60043 5.2349C7.5425 5.72719 7.62514 6.22582 7.83879 6.6731C8.05243 7.12038 8.38836 7.49803 8.80769 7.76235C9.22703 8.02667 9.71264 8.16685 10.2083 8.16669C10.3384 8.16669 10.4632 8.14685 10.5875 8.12877C10.5472 8.2641 10.5058 8.40177 10.4393 8.52544C10.3728 8.7051 10.269 8.86085 10.1657 9.01777C10.0794 9.18752 9.92716 9.30244 9.81516 9.44769C9.69791 9.58885 9.53807 9.68277 9.41149 9.80002C9.28724 9.92252 9.12449 9.98377 8.99499 10.0701C8.85966 10.1477 8.74182 10.2334 8.61582 10.2743L8.30141 10.4038L8.02491 10.5187L8.30724 11.6498L8.65549 11.5658C8.76691 11.5378 8.90282 11.5051 9.05741 11.466C9.21549 11.4369 9.38407 11.3569 9.57191 11.284C9.75682 11.2006 9.97207 11.1452 10.1716 11.0116C10.3722 10.8844 10.6038 10.7783 10.808 10.6079C11.0057 10.4324 11.2443 10.2801 11.4205 10.0573C11.613 9.84844 11.8032 9.6291 11.9507 9.37944C12.1217 9.14144 12.2377 8.8801 12.3602 8.62169C12.4711 8.36327 12.5603 8.09902 12.6332 7.84235C12.7715 7.32785 12.8333 6.83902 12.8572 6.42077C12.8771 6.00194 12.8654 5.65369 12.8409 5.40169C12.8327 5.29645 12.8204 5.19156 12.8042 5.08727ZM6.38749 5.08727L6.37291 4.98927L6.35774 4.99277C6.25409 4.50804 6.0153 4.06257 5.66902 3.70789C5.32274 3.35322 4.88311 3.10383 4.401 2.9886C3.9189 2.87337 3.41401 2.897 2.94478 3.05675C2.47554 3.2165 2.06112 3.50585 1.74947 3.89132C1.43783 4.27678 1.24169 4.74261 1.18376 5.2349C1.12583 5.72719 1.20847 6.22582 1.42212 6.6731C1.63577 7.12038 1.97169 7.49803 2.39103 7.76235C2.81036 8.02667 3.29597 8.16685 3.79166 8.16669C3.92174 8.16669 4.04657 8.14685 4.17082 8.12877C4.13057 8.2641 4.08916 8.40177 4.02266 8.52544C3.95616 8.7051 3.85232 8.86085 3.74907 9.01777C3.66274 9.18752 3.51049 9.30244 3.39849 9.44769C3.28124 9.58885 3.12141 9.68277 2.99482 9.80002C2.87057 9.92252 2.70782 9.98377 2.57832 10.0701C2.44299 10.1477 2.32516 10.2334 2.19916 10.2743L1.88474 10.4038C1.70916 10.4755 1.60882 10.5175 1.60882 10.5175L1.89116 11.6486L2.23941 11.5646C2.35082 11.5366 2.48674 11.5039 2.64132 11.4649C2.79941 11.4357 2.96799 11.3558 3.15582 11.2829C3.34074 11.1994 3.55599 11.144 3.75549 11.0104C3.95616 10.8833 4.18774 10.7771 4.39191 10.6068C4.58966 10.4312 4.82824 10.2789 5.00441 10.0561C5.19691 9.84727 5.38707 9.62794 5.53466 9.37827C5.70557 9.14027 5.82166 8.87894 5.94416 8.62052C6.05499 8.3621 6.14424 8.09785 6.21716 7.84119C6.35541 7.32669 6.41724 6.83785 6.44116 6.4196C6.46099 6.00077 6.44932 5.65252 6.42482 5.40052C6.41611 5.29569 6.40366 5.19121 6.38749 5.08727Z" fill="#068353"/>
</svg>
